<?xml version="1.0" encoding="utf-8"?>
<svg version="1.1" xmlns="http://www.w3.org/2000/svg" x="0px" y="0px" width="110px" height="110px" viewBox="0 0 110 110" style="enable-background:new 0 0 110 110;" xml:space="preserve">
<path d="M43.456,27.275c-1.931-2.192-9.081-11.029-8.35-20.979C35.123,6,35.315,5.844,35.384,5.791c0.122-0.07,0.278-0.122,0.487-0.035l10.994,4.192c1.444,0.557,3.044,0.244,4.192-0.818c0.07-0.07,0.139-0.157,0.209-0.244l2.383-3.236c0.644-0.87,2.053-0.87,2.679,0l2.383,3.236c0.07,0.087,0.139,0.174,0.226,0.244c1.113,1.044,2.766,1.357,4.192,0.818l10.977-4.192c0.209-0.087,0.383-0.035,0.487,0.035c0.07,0.052,0.261,0.209,0.278,0.505c0.731,9.95-6.402,18.787-8.333,20.979h-3.27c2.505-5.828-0.313-11.638-0.452-11.934c-0.418-0.852-1.461-1.2-2.331-0.765c-0.852,0.417-1.2,1.461-0.783,2.331c0.122,0.226,2.696,5.636-0.383,10.368h-6.697c-1.618-3.236-3.984-9.916-0.87-12.925c0.678-0.678,0.696-1.774,0.035-2.47c-0.678-0.678-1.774-0.696-2.47-0.035c-4.384,4.262-2.174,11.551-0.522,15.43H43.456z M86.563,83.899l-5.288-29.486L78.752,40.34c-0.504-2.783-1.948-5.167-3.984-6.871c-2.035-1.705-4.645-2.714-7.463-2.714h-7.063c-0.017,0-0.017,0-0.017,0H42.673c-5.636,0-10.438,4.036-11.446,9.585l-7.793,43.559c-0.922,5.254,0.487,10.594,3.914,14.682c3.41,4.088,8.437,6.419,13.76,6.419h27.781c3.949,0,7.706-1.253,10.838-3.618C85.119,97.259,87.746,90.561,86.563,83.899z"/>
<path fill="#333333" d="M68.889,105.5H41.107c-5.491,0-10.646-2.405-14.144-6.599c-3.506-4.182-4.972-9.682-4.023-15.09l7.793-43.56c1.054-5.793,6.075-9.998,11.939-9.998h24.632c2.841,0,5.605,1.005,7.784,2.831c2.172,1.819,3.646,4.364,4.154,7.166l7.812,43.561c1.215,6.841-1.478,13.726-7.025,17.968C76.807,104.214,72.954,105.5,68.889,105.5z M42.673,31.254c-5.381,0-9.988,3.858-10.955,9.175l-7.792,43.557c-0.898,5.115,0.489,10.318,3.805,14.273c3.308,3.966,8.183,6.24,13.376,6.24h27.781c3.847,0,7.49-1.216,10.536-3.518c5.247-4.011,7.795-10.524,6.646-16.996L78.26,40.428c-0.466-2.572-1.819-4.908-3.812-6.577c-1.999-1.675-4.535-2.597-7.142-2.597H42.673z M66.766,27.775h-4.255l0.3-0.697c2.272-5.285,0.033-10.515-0.438-11.509c-0.145-0.295-0.392-0.511-0.698-0.615c-0.317-0.108-0.66-0.083-0.964,0.07c-0.607,0.297-0.854,1.044-0.556,1.667c0.021,0.038,2.907,5.754-0.414,10.857l-0.147,0.228h-7.278l-0.138-0.276c-0.802-1.604-4.609-9.797-0.77-13.508c0.486-0.486,0.497-1.264,0.02-1.767c-0.482-0.482-1.261-0.493-1.764-0.017c-4.147,4.032-2.035,11.049-0.406,14.872l0.296,0.696H43.23l-0.149-0.169c-2.174-2.468-9.211-11.301-8.474-21.347c0.02-0.341,0.189-0.651,0.476-0.867c0.355-0.206,0.667-0.228,0.981-0.097l10.979,4.187c1.262,0.487,2.67,0.211,3.675-0.718c0.043-0.044,0.101-0.117,0.159-0.189l2.37-3.219c0.401-0.541,1.03-0.895,1.764-0.856c0.695,0.005,1.339,0.326,1.723,0.86l2.38,3.232c0.045,0.054,0.095,0.115,0.136,0.149c1.001,0.936,2.441,1.218,3.704,0.741L73.929,5.29c0.313-0.13,0.661-0.103,0.943,0.086c0.311,0.232,0.479,0.542,0.5,0.89c0.738,10.058-6.286,18.877-8.457,21.34L66.766,27.775z M64.005,26.775h2.309c2.258-2.602,8.755-10.983,8.061-20.443c-0.003-0.062-0.026-0.101-0.08-0.142L63.31,10.417c-1.62,0.609-3.466,0.249-4.713-0.92C58.5,9.421,58.409,9.309,58.329,9.21l-2.403-3.262c-0.202-0.28-0.545-0.446-0.921-0.449c-0.003,0-0.006,0-0.009,0c-0.383,0-0.735,0.168-0.944,0.45L51.67,9.185c-0.095,0.118-0.177,0.219-0.258,0.3c-1.301,1.203-3.107,1.555-4.726,0.931L35.693,6.224c-0.062,0.007-0.085,0.046-0.088,0.102c-0.693,9.448,5.816,17.842,8.078,20.45h4.367c-1.665-4.172-3.409-11.081,0.92-15.289c0.902-0.859,2.294-0.839,3.172,0.04c0.863,0.908,0.843,2.299-0.035,3.177c-3.186,3.08,0.015,10.368,0.829,12.072h6.109c2.758-4.532,0.245-9.583,0.218-9.633c-0.546-1.135-0.091-2.479,1.004-3.015c0.541-0.271,1.156-0.313,1.728-0.121c0.562,0.19,1.014,0.586,1.272,1.115C63.759,16.159,65.979,21.342,64.005,26.775z"/>
</svg>
