<?xml version="1.0" encoding="utf-8"?>
<svg version="1.1" xmlns="http://www.w3.org/2000/svg" x="0px" y="0px" width="110px" height="110px" viewBox="0 0 110 110" enable-background="new 0 0 110 110" xml:space="preserve">
<path d="M87.202,68.54l-64.405,0c-1.782,0-3.422-0.975-4.273-2.541L9.167,48.775l91.666,0l-9.358,17.224C90.624,67.565,88.985,68.54,87.202,68.54z"/>
<path fill="#59595B" d="M101.343,41.46l-92.685,0C6.637,41.46,5,43.098,5,45.118l0,0c0,2.02,1.637,3.657,3.657,3.657l92.685,0c2.02,0,3.657-1.637,3.657-3.657l0,0C105,43.098,103.363,41.46,101.343,41.46z"/>
</svg>
