<?xml version="1.0" encoding="utf-8"?>
<svg version="1.1" xmlns="http://www.w3.org/2000/svg" x="0px" y="0px" width="110px" height="110px" viewBox="0 0 110 110" style="enable-background:new 0 0 110 110;" xml:space="preserve">
<g>
	<path fill="#E6E6E6" d="M80.576,105H29.424c-5.685,0-10.294-4.609-10.294-10.294V15.294C19.13,9.609,23.739,5,29.424,5h51.151C86.261,5,90.87,9.609,90.87,15.294v79.412C90.87,100.391,86.261,105,80.576,105z"/>
	<g>
		<path fill="#FFFFFF" d="M55,97.391L55,97.391c-0.9,0-1.63-0.73-1.63-1.63V14.239c0-0.9,0.73-1.63,1.63-1.63l0,0c0.9,0,1.63,0.73,1.63,1.63v81.522C56.63,96.661,55.9,97.391,55,97.391z"/>
		<path fill="#D1D1D1" d="M55.779,12.815c0.127,0.232,0.206,0.495,0.206,0.779v81.522c0,0.901-0.73,1.63-1.63,1.63c-0.284,0-0.546-0.079-0.779-0.206c0.277,0.505,0.807,0.852,1.424,0.852c0.9,0,1.63-0.73,1.63-1.63V14.239C56.63,13.622,56.284,13.092,55.779,12.815z"/>
	</g>
</g>
<g>
	<g>
		<path fill="#FFB6B3" d="M43.315,25.833h-14.13c-2.201,0-3.986-1.784-3.986-3.986l0,0c0-2.201,1.784-3.986,3.986-3.986h14.13c2.201,0,3.986,1.784,3.986,3.986l0,0C47.301,24.049,45.516,25.833,43.315,25.833z"/>
		<path fill="#CFFF66" d="M43.315,17.862H36.25v7.971h7.065c2.201,0,3.985-1.784,3.985-3.985C47.301,19.646,45.516,17.862,43.315,17.862z"/>
		<path fill="#EBEBEB" d="M44.472,18.053c0.738,0.723,1.198,1.729,1.198,2.844c0,2.201-1.784,3.986-3.985,3.986H27.554c-0.405,0-0.788-0.078-1.157-0.191c0.719,0.705,1.701,1.142,2.787,1.142h14.131c2.201,0,3.985-1.784,3.985-3.986C47.301,20.052,46.105,18.551,44.472,18.053z"/>
	</g>
	<g>
		<path fill="#FFB6B3" d="M80.815,25.833h-14.13c-2.201,0-3.986-1.784-3.986-3.986l0,0c0-2.201,1.784-3.986,3.986-3.986h14.13c2.201,0,3.986,1.784,3.986,3.986l0,0C84.801,24.049,83.016,25.833,80.815,25.833z"/>
		<path fill="#CFFF66" d="M80.815,17.862H73.75v7.971h7.065c2.201,0,3.985-1.784,3.985-3.985C84.801,19.646,83.016,17.862,80.815,17.862z"/>
		<path fill="#EBEBEB" d="M81.972,18.053c0.738,0.723,1.198,1.729,1.198,2.844c0,2.201-1.784,3.986-3.986,3.986h-14.13c-0.405,0-0.789-0.078-1.157-0.191c0.719,0.705,1.701,1.142,2.787,1.142h14.13c2.201,0,3.986-1.784,3.986-3.986C84.801,20.052,83.605,18.551,81.972,18.053z"/>
	</g>
	<g>
		<path fill="#FFB6B3" d="M43.315,47.935h-14.13c-2.201,0-3.986-1.784-3.986-3.986l0,0c0-2.201,1.784-3.986,3.986-3.986h14.13c2.201,0,3.986,1.784,3.986,3.986l0,0C47.301,46.15,45.516,47.935,43.315,47.935z"/>
		<path fill="#CFFF66" d="M43.315,39.964H36.25v7.971h7.065c2.201,0,3.985-1.784,3.985-3.985C47.301,41.748,45.516,39.964,43.315,39.964z"/>
		<path fill="#EBEBEB" d="M44.472,40.155c0.738,0.723,1.198,1.729,1.198,2.844c0,2.201-1.784,3.985-3.985,3.985H27.554c-0.405,0-0.788-0.078-1.157-0.191c0.719,0.705,1.701,1.142,2.787,1.142h14.131c2.201,0,3.985-1.784,3.985-3.986C47.301,42.153,46.105,40.653,44.472,40.155z"/>
	</g>
	<g>
		<path fill="#FFB6B3" d="M80.815,47.935h-14.13c-2.201,0-3.986-1.784-3.986-3.986l0,0c0-2.201,1.784-3.986,3.986-3.986h14.13c2.201,0,3.986,1.784,3.986,3.986l0,0C84.801,46.15,83.016,47.935,80.815,47.935z"/>
		<path fill="#CFFF66" d="M80.815,39.964H73.75v7.971h7.065c2.201,0,3.985-1.784,3.985-3.985C84.801,41.748,83.016,39.964,80.815,39.964z"/>
		<path fill="#EBEBEB" d="M81.972,40.155c0.738,0.723,1.198,1.729,1.198,2.844c0,2.201-1.784,3.985-3.986,3.985h-14.13c-0.405,0-0.788-0.078-1.157-0.191c0.719,0.705,1.701,1.142,2.787,1.142h14.13c2.201,0,3.986-1.784,3.986-3.986C84.801,42.153,83.605,40.653,81.972,40.155z"/>
	</g>
	<g>
		<path fill="#FFB6B3" d="M43.315,70.036h-14.13c-2.201,0-3.986-1.784-3.986-3.986l0,0c0-2.201,1.784-3.986,3.986-3.986h14.13c2.201,0,3.986,1.784,3.986,3.986l0,0C47.301,68.252,45.516,70.036,43.315,70.036z"/>
		<path fill="#CFFF66" d="M43.315,62.065H36.25v7.971h7.065c2.201,0,3.985-1.784,3.985-3.986C47.301,63.85,45.516,62.065,43.315,62.065z"/>
		<path fill="#EBEBEB" d="M44.472,62.256c0.738,0.723,1.198,1.729,1.198,2.844c0,2.201-1.784,3.986-3.985,3.986H27.554c-0.405,0-0.788-0.078-1.157-0.191c0.719,0.705,1.701,1.142,2.787,1.142h14.131c2.201,0,3.985-1.784,3.985-3.986C47.301,64.255,46.105,62.754,44.472,62.256z"/>
	</g>
	<g>
		<path fill="#FFB6B3" d="M80.815,70.036h-14.13c-2.201,0-3.986-1.784-3.986-3.986l0,0c0-2.201,1.784-3.986,3.986-3.986h14.13c2.201,0,3.986,1.784,3.986,3.986l0,0C84.801,68.252,83.016,70.036,80.815,70.036z"/>
		<path fill="#CFFF66" d="M80.815,62.065H73.75v7.971h7.065c2.201,0,3.985-1.784,3.985-3.986C84.801,63.85,83.016,62.065,80.815,62.065z"/>
		<path fill="#EBEBEB" d="M81.972,62.256c0.738,0.723,1.198,1.729,1.198,2.844c0,2.201-1.784,3.986-3.986,3.986h-14.13c-0.405,0-0.789-0.078-1.157-0.191c0.719,0.705,1.701,1.142,2.787,1.142h14.13c2.201,0,3.986-1.784,3.986-3.986C84.801,64.255,83.605,62.754,81.972,62.256z"/>
	</g>
	<g>
		<path fill="#FFB6B3" d="M43.315,92.138h-14.13c-2.201,0-3.986-1.784-3.986-3.986l0,0c0-2.201,1.784-3.986,3.986-3.986h14.13c2.201,0,3.986,1.784,3.986,3.986l0,0C47.301,90.354,45.516,92.138,43.315,92.138z"/>
		<path fill="#CFFF66" d="M43.315,84.167H36.25v7.971h7.065c2.201,0,3.985-1.784,3.985-3.986C47.301,85.951,45.516,84.167,43.315,84.167z"/>
		<path fill="#EBEBEB" d="M44.472,84.358c0.738,0.723,1.198,1.729,1.198,2.844c0,2.201-1.784,3.986-3.985,3.986H27.554c-0.405,0-0.788-0.078-1.157-0.191c0.719,0.705,1.701,1.142,2.787,1.142h14.131c2.201,0,3.985-1.784,3.985-3.986C47.301,86.356,46.105,84.856,44.472,84.358z"/>
	</g>
	<g>
		<path fill="#FFB6B3" d="M80.815,92.138h-14.13c-2.201,0-3.986-1.784-3.986-3.986l0,0c0-2.201,1.784-3.986,3.986-3.986h14.13c2.201,0,3.986,1.784,3.986,3.986l0,0C84.801,90.354,83.016,92.138,80.815,92.138z"/>
		<path fill="#CFFF66" d="M80.815,84.167H73.75v7.971h7.065c2.201,0,3.985-1.784,3.985-3.986C84.801,85.951,83.016,84.167,80.815,84.167z"/>
		<path fill="#EBEBEB" d="M81.972,84.358c0.738,0.723,1.198,1.729,1.198,2.844c0,2.201-1.784,3.986-3.986,3.986h-14.13c-0.405,0-0.789-0.078-1.157-0.191c0.719,0.705,1.701,1.142,2.787,1.142h14.13c2.201,0,3.986-1.784,3.986-3.986C84.801,86.356,83.605,84.856,81.972,84.358z"/>
	</g>
</g>
</svg>
