<?xml version="1.0" encoding="utf-8"?>
<svg version="1.1" xmlns="http://www.w3.org/2000/svg" x="0px" y="0px" width="110px" height="110px" viewBox="0 0 110 110" style="enable-background:new 0 0 110 110;" xml:space="preserve">
<g>
	<g>
		<path fill="#D4FBFF" d="M94.382,57.053c0,0-1.643,1.369-7.391,2.874c0,0,0.137-7.118-1.643-7.665c-0.821-0.411-10.403,7.255-14.646,8.35c-6.023-0.684-7.665-5.475-11.909-6.433c-4.243-0.958-7.255,2.464-14.099,4.517c8.076-3.833,8.35-6.297,12.456-6.297c4.106,0,10.403,4.791,12.456,4.791c2.053,0,11.224-7.528,12.456-9.718c0,0-2.874-2.874-5.201-6.433c0,0,2.224-0.65,5.509-1.198l1.632-6.772c0,0-3.48-3.699-9.332-3.938c0,0,0.411-4.38,0-6.433c0,0-1.369-3.285-4.654-6.023c0,0-0.418-1.046-1.347-3.515c-5.547-2.401-11.661-3.739-18.09-3.739C25.407,9.419,5,29.826,5,55c0,25.174,20.407,45.581,45.581,45.581c20.799,0,38.332-13.936,43.801-32.977C94.382,63.17,94.382,58.367,94.382,57.053z"/>
		<path fill="#DBDBDB" d="M51.402,99.623c-25.174,0-45.581-20.407-45.581-45.581c0-10.964,3.873-21.022,10.323-28.885C9.208,33.154,5,43.582,5,55c0,25.174,20.407,45.581,45.581,45.581c14.015,0,26.54-6.333,34.897-16.286C77.132,93.695,64.963,99.623,51.402,99.623z"/>
	</g>
	<path fill="#CFCFCF" d="M80.487,55.09c-3.267,2.174-7.381,4.902-9.785,5.522c-6.023-0.684-7.665-5.475-11.909-6.433c-4.243-0.958-7.255,2.464-14.099,4.517c8.076-3.833,8.35-6.297,12.456-6.297c4.106,0,10.403,4.791,12.456,4.791c1.566,0,7.263-4.374,10.43-7.424c-0.444-2.59-1.21-5.068-2.257-7.393c-0.31-0.431-0.619-0.876-0.918-1.334c0,0,0.085-0.025,0.243-0.068c-5.104-9.953-15.46-16.768-27.414-16.768c-17.009,0-30.798,13.789-30.798,30.798s13.789,30.798,30.798,30.798C66.67,85.798,80.438,72.058,80.487,55.09z"/>
</g>
<g>
	<g>
		<path fill="#D4FBFF" d="M79.189,17.666c-0.513,3.388,2.259,7.289,2.259,7.289c3.182-0.513,3.798-3.388,3.798-3.644C84.014,18.59,79.189,17.666,79.189,17.666z"/>
		<path fill="#DBDBDB" d="M81.447,24.271c0,0-2.143-3.02-2.31-6.053c-0.168,3.246,2.31,6.737,2.31,6.737c3.182-0.513,3.798-3.388,3.798-3.644c-0.031-0.068-0.074-0.131-0.109-0.197C84.856,22.02,83.942,23.868,81.447,24.271z"/>
	</g>
	<g>
		<path fill="#D4FBFF" d="M94.382,29.472c1.027-3.08,2.977-3.182,2.977-3.182c4.004,2.053,2.874,3.182,2.874,3.182C95.409,30.704,94.382,29.472,94.382,29.472z"/>
		<path fill="#DBDBDB" d="M100.234,28.788c-3.72,0.95-5.178,0.436-5.652,0.151c-0.069,0.167-0.136,0.345-0.199,0.534c0,0,1.027,1.232,5.852,0c0,0,0.269-0.274,0.073-0.794C100.27,28.75,100.234,28.788,100.234,28.788z"/>
	</g>
	<g>
		<path fill="#D4FBFF" d="M89.66,33.578c0.513,4.004,0.308,5.852-1.129,7.391c-1.437,1.54-2.361,1.745-2.361,1.745c3.285,3.593,7.084,3.696,7.084,3.696c3.901-3.08,3.182-5.03,2.977-6.981c-0.205-1.951-4.209-4.004-4.209-4.004C91.303,34.194,89.66,33.578,89.66,33.578z"/>
		<g>
			<path fill="#DBDBDB" d="M89.747,33.614c-0.053-0.022-0.087-0.035-0.087-0.035c0.145,1.128,0.23,2.081,0.249,2.908C89.931,35.679,89.874,34.74,89.747,33.614z"/>
			<path fill="#DBDBDB" d="M93.253,45.726c0,0-3.445-0.1-6.611-3.214c-0.299,0.158-0.472,0.203-0.472,0.203c3.285,3.593,7.084,3.696,7.084,3.696c2.856-2.255,3.234-3.903,3.152-5.391C96.317,42.333,95.679,43.811,93.253,45.726z"/>
		</g>
	</g>
	<g>
		<path fill="#D4FBFF" d="M98.386,43.331c0,2.566,2.874,6.673,2.874,6.673c4.414-4.517,3.696-6.673,3.696-6.673c-2.464-2.259-4.575-2.053-4.575-2.053C99.618,41.996,98.386,43.331,98.386,43.331z"/>
		<path fill="#DBDBDB" d="M101.261,49.319c0,0-2.44-3.491-2.82-6.047c-0.035,0.038-0.054,0.059-0.054,0.059c0,2.566,2.874,6.673,2.874,6.673c3.97-4.062,3.789-6.209,3.712-6.601C104.851,44.384,104.18,46.332,101.261,49.319z"/>
	</g>
	<g>
		<path fill="#D4FBFF" d="M89.66,50.004C90.071,52.468,92.637,55,92.637,55c4.722-1.711,5.133-2.498,5.133-2.498C92.945,51.749,89.66,50.004,89.66,50.004z"/>
		<path fill="#DBDBDB" d="M92.637,54.316c0,0-2.045-2.022-2.774-4.21c-0.129-0.063-0.203-0.102-0.203-0.102C90.071,52.468,92.637,55,92.637,55c4.722-1.711,5.133-2.498,5.133-2.498c-0.245-0.038-0.483-0.081-0.72-0.124C96.378,52.788,95.094,53.426,92.637,54.316z"/>
	</g>
</g>
</svg>
