<?xml version="1.0" encoding="utf-8"?>
<svg version="1.1" xmlns="http://www.w3.org/2000/svg" x="0px" y="0px" width="110px" height="110px" viewBox="0 0 110 110" style="enable-background:new 0 0 110 110;" xml:space="preserve">
<path fill="#4B4B4B" d="M86.435,31.204H23.527c-1.4,0-2.505,1.189-2.403,2.585l4.607,62.994c0.419,4.653,4.319,8.217,8.99,8.217h40.52c4.672,0,8.571-3.564,8.99-8.217l4.607-62.994C88.94,32.393,87.835,31.204,86.435,31.204z M38.72,94.497c-0.024,0.001-0.048,0.001-0.072,0.001c-1.19,0-2.174-0.945-2.212-2.144l-1.654-51.607c-0.039-1.222,0.92-2.245,2.142-2.284c1.203-0.039,2.245,0.92,2.284,2.142l1.654,51.607C40.902,93.436,39.943,94.458,38.72,94.497z M57.195,92.284c0,1.223-0.992,2.214-2.214,2.214c-1.223,0-2.214-0.991-2.214-2.214V40.677c0-1.223,0.991-2.214,2.214-2.214s2.214,0.991,2.214,2.214V92.284z M73.525,92.347c-0.034,1.201-1.019,2.151-2.212,2.151c-0.022,0-0.043,0-0.064-0.001c-1.222-0.035-2.185-1.054-2.15-2.277l1.476-51.607c0.035-1.223,1.077-2.181,2.277-2.15c1.222,0.035,2.185,1.055,2.15,2.277L73.525,92.347z M85.667,16.379h-10.11v-2.06C75.556,9.18,71.376,5,66.237,5h-21.59c-5.139,0-9.319,4.18-9.319,9.319v2.06H24.333c-3.712,0-6.721,3.009-6.721,6.721v1.266c0,1.331,1.079,2.41,2.41,2.41h69.955c1.331,0,2.41-1.079,2.41-2.41V23.1C92.387,19.388,89.378,16.379,85.667,16.379z M70.02,16.379H40.864v-2.06c0-2.086,1.697-3.783,3.783-3.783h21.59c2.086,0,3.783,1.697,3.783,3.783V16.379z"/>
</svg>
