<?xml version="1.0" encoding="utf-8"?>
<svg version="1.1" xmlns="http://www.w3.org/2000/svg" x="0px" y="0px" width="110px" height="110px" viewBox="0 0 110 110" style="enable-background:new 0 0 110 110;" xml:space="preserve">
<g>
	<path fill="#824D41" d="M28.701,35.972c0.504,7.81,1.008,9.825,4.787,16.879s3.779,9.321,3.779,9.321c-2.267,2.015-8.566,7.054-8.566,9.069c0,2.015,2.015,4.535,13.1,5.039c-1.764,3.527-9.825,5.794-11.085,7.558C29.457,90.64,30.212,105,37.266,105s26.452,0,33.506,0c7.054,0,8.565-11.085,10.077-17.887c1.512-6.802,2.015-8.314,2.015-8.314c-2.771-1.008-9.321-3.275-9.321-3.275c4.283-2.015,12.848-3.023,13.1-5.039c0.252-2.015-10.077-9.321-9.825-10.077c0.252-1.512,9.825-5.542,10.581-10.329c-0.756-4.787-1.763-14.36-1.763-20.406c0-6.046-0.252-11.085-7.306-9.069C54.398,32.949,28.701,35.972,28.701,35.972z"/>
	<path fill="#CFCFCF" d="M76.819,60.409c0.252-1.512,9.825-5.542,10.581-10.329c-0.756-4.787-1.763-14.36-1.763-20.406c0-5.767-0.244-10.602-6.387-9.289c2.878,0.951,3.025,4.842,3.025,9.289c0,6.046,1.008,15.619,1.764,20.406c-0.756,4.787-12.167,9.699-15.19,10.707c-2.028,1.21,14.686,7.684,14.434,9.699c-0.252,2.015-10.781,1.889-19.977,6.55c0,0,13.426,0.756,16.198,1.763c0,0-0.504,1.512-2.015,8.314C75.977,93.915,74.465,105,67.411,105c1.294,0,2.436,0,3.362,0c7.054,0,8.565-11.085,10.077-17.887c1.512-6.802,2.015-8.314,2.015-8.314c-2.771-1.008-9.321-3.275-9.321-3.275c4.283-2.015,12.848-3.023,13.1-5.039C86.896,68.471,76.567,61.165,76.819,60.409z"/>
	<path fill="#E0E0E0" d="M77.044,36.224c1.361,0.657,1.26,12.848,0,13.73c-1.26,0.882-12.596,8.817-12.722,10.581c-0.126,1.763,8.188,5.164,8.188,6.676c0,1.512-11.967,8.565-11.841,9.447c0.126,0.882,10.959,6.424,10.707,8.062c-0.252,1.638-1.512,10.707-2.771,14.486C67.344,102.985,55,103.614,55,103.614c9.951-2.267,11.415-3.081,13.14-10.673c1.724-7.592,1.002-8.348-2.605-9.859c-3.607-1.512-10.644-6.616-6.748-7.969c3.897-1.353,10.467-6.517,10.331-7.399c-0.136-0.882-11.725-3.348-10.843-5.642c0.882-2.294,15.662-13.294,16.543-15.436C76.708,42.102,76.348,35.888,77.044,36.224z"/>
	<path fill="#1F1F1F" d="M33.93,47.561c4.409,7.054,11.715,11.967,11.966,13.604c0.252,1.637-4.338,3.149-4.058,4.787c0.279,1.638,5.187,2.519,4.686,3.401c-0.502,0.882-9.571,0.63-10.075-1.26c-0.504-1.889,6.172-4.157,4.787-6.676C39.851,58.897,32.041,47.309,33.93,47.561z"/>
</g>
<g>
	<path fill="#D99687" d="M23.662,39.583c7.994,4.568,30.231,1.344,40.98-2.855C75.391,32.529,87.82,20.772,87.4,18.421c-0.42-2.351,0.42-2.351-4.283-3.191c-4.703-0.84-2.183-1.512-5.542-9.573c-1.679-0.84-15.955-1.344-30.231,1.512c-14.276,2.855-22.17,9.573-22.002,11.589c0.168,2.015,3.023,9.069,2.015,10.413C26.35,30.513,20.135,37.567,23.662,39.583z"/>
	<path fill="#D1D1D1" d="M70.521,20.153c-0.378-0.955-7.893,4.223-21.54,6.498C35.604,28.88,30.37,29.23,27.019,25.062c0.484,1.86,0.777,3.524,0.339,4.108c-1.008,1.344-7.222,8.397-3.695,10.413c1.069,0.611,2.4,1.079,3.917,1.427c-2.95-1.405-4.881-3.192-3.595-4.997c2.842-3.99,3.456-3.82,20.084-6.876C60.696,26.082,70.899,21.108,70.521,20.153z"/>
	<path fill="#D1D1D1" d="M87.4,18.421c-0.42-2.351,0.42-2.351-4.283-3.191c-4.29-0.766-2.583-1.411-4.799-7.637c0.683,5.251-1.064,7.551-0.408,8.645c0.756,1.26,7.054-0.924,8.817,1.092c0.47,0.537,0.362,1.594-0.037,2.846C87.21,19.401,87.466,18.793,87.4,18.421z"/>
	<path fill="#EBEBEB" d="M77.405,5.589c-2.295-0.797-16.176-1.197-30.061,1.58c-14.276,2.855-22.17,9.573-22.002,11.589c0.001,0.008,0.003,0.02,0.004,0.028C38.498,21.375,68.87,15.122,77.405,5.589z"/>
</g>
</svg>
